<svg width="692" height="200" viewBox="0 0 692 200" fill="none" xmlns="http://www.w3.org/2000/svg">
<path d="M53.1562 155H46.4062V154.188H48.4375L46.0938 148.125H39.5625L37.2188 154.188H38.75C38.8542 154.188 38.9583 154.198 39.0625 154.219C39.3958 154.281 39.5625 154.542 39.5625 155H34V154.188H35.9688L42.9688 136.25H44.125L51.2812 154.188H52.3438C52.4479 154.188 52.5521 154.198 52.6562 154.219C52.9896 154.281 53.1562 154.542 53.1562 155ZM45.75 147.219L42.8125 139.656L39.9062 147.219H45.75ZM61.0938 154.219C61.2188 154.219 61.3229 154.229 61.4062 154.25C61.7188 154.292 61.875 154.542 61.875 155H54.1562V154.219C54.8646 154.219 55.375 154.167 55.6875 154.062C56.2292 153.875 56.5 153.302 56.5 152.344V142.5H54.1562V141.719H58.6875L58.8125 144.812C59.0833 144.188 59.4479 143.625 59.9062 143.125C60.8854 142.062 62 141.531 63.25 141.531C63.4375 141.531 63.6354 141.552 63.8438 141.594C64.8021 141.802 65.2812 142.375 65.2812 143.312C65.2812 143.438 65.2604 143.562 65.2188 143.688C65.0521 144.292 64.6562 144.594 64.0312 144.594C63.9062 144.594 63.7812 144.573 63.6562 144.531C63.3646 144.448 63.0521 144.115 62.7188 143.531C62.4271 143.01 62.1042 142.75 61.75 142.75C61.4375 142.771 61.0521 143 60.5938 143.438C59.4271 144.583 58.8438 146.104 58.8438 148V154.219H61.0938ZM66.6875 148.5C66.6875 147.125 66.9479 145.896 67.4688 144.812C68.5729 142.542 70.5208 141.406 73.3125 141.406C74.4375 141.406 75.4792 141.646 76.4375 142.125C77.7917 142.812 78.4688 143.688 78.4688 144.75C78.4688 144.875 78.4479 145.01 78.4062 145.156C78.2188 145.781 77.7708 146.073 77.0625 146.031C76.8125 146.01 76.5833 145.948 76.375 145.844C76.0417 145.635 75.8125 145.115 75.6875 144.281C75.625 143.927 75.5729 143.667 75.5312 143.5C75.3021 142.625 74.625 142.188 73.5 142.188C72.7708 142.188 72.1042 142.375 71.5 142.75C70.0625 143.667 69.3438 145.49 69.3438 148.219C69.3438 149.76 69.6562 151.094 70.2812 152.219C71.1146 153.698 72.2708 154.438 73.75 154.438C73.9167 154.438 74.0833 154.427 74.25 154.406C76.0208 154.24 77.2917 153.333 78.0625 151.688L78.875 151.969C78.7292 152.323 78.5312 152.677 78.2812 153.031C77.1771 154.552 75.5417 155.312 73.375 155.312C71.9167 155.312 70.6146 154.927 69.4688 154.156C67.6146 152.906 66.6875 151.021 66.6875 148.5ZM86.2812 154.219C86.4062 154.219 86.5104 154.229 86.5938 154.25C86.9062 154.292 87.0625 154.542 87.0625 155H80.0312V154.219C80.7396 154.219 81.25 154.167 81.5625 154.062C82.1042 153.875 82.375 153.302 82.375 152.344V135.469H80.0312V134.688H84.7188V144.719C84.9479 144.115 85.2812 143.573 85.7188 143.094C86.7604 141.969 88.0521 141.406 89.5938 141.406C90.2604 141.406 90.8854 141.552 91.4688 141.844C92.9688 142.656 93.7188 144.198 93.7188 146.469V154.219H95.2812C95.4062 154.219 95.5104 154.229 95.5938 154.25C95.9062 154.292 96.0625 154.542 96.0625 155H89.1875V154.219C89.8958 154.219 90.3958 154.167 90.6875 154.062C91.1458 153.875 91.375 153.302 91.375 152.344V146.469C91.375 145.781 91.2604 145.156 91.0312 144.594C90.5312 143.406 89.6458 142.812 88.375 142.812C87.7917 142.812 87.2292 142.99 86.6875 143.344C85.375 144.198 84.7188 145.573 84.7188 147.469V154.219H86.2812ZM104.219 154.219C104.323 154.219 104.427 154.229 104.531 154.25C104.844 154.292 105 154.542 105 155H97.8125V154.219C98.5208 154.219 99.0312 154.177 99.3438 154.094C99.9896 153.885 100.312 153.302 100.312 152.344V142.5H97.8125V141.719H102.656V154.219H104.219ZM103.031 137.156C103.031 137.406 102.979 137.646 102.875 137.875C102.583 138.542 102.073 138.875 101.344 138.875C101.115 138.875 100.885 138.833 100.656 138.75C99.9688 138.458 99.625 137.927 99.625 137.156C99.625 136.906 99.6771 136.667 99.7812 136.438C100.094 135.771 100.615 135.438 101.344 135.438C101.573 135.438 101.812 135.49 102.062 135.594C102.708 135.906 103.031 136.427 103.031 137.156ZM112.094 142.5H109.906L113.906 153.156L117.875 142.5H115.531V141.719H120.344C120.344 141.823 120.333 141.927 120.312 142.031C120.271 142.344 120.021 142.5 119.562 142.5C119.479 142.5 119.385 142.51 119.281 142.531C118.927 142.594 118.625 142.948 118.375 143.594L113.969 155.156H113.562C113.188 155.156 112.875 155.104 112.625 155C112.125 154.812 111.667 154.135 111.25 152.969L107.438 142.5H106.031V141.719H112.094V142.5ZM128.219 142.188C127.677 142.188 127.167 142.312 126.688 142.562C125.229 143.292 124.448 144.854 124.344 147.25L127.656 147.344C128.615 147.365 129.354 147.323 129.875 147.219C130.875 146.99 131.375 146.354 131.375 145.312C131.375 144.854 131.292 144.427 131.125 144.031C130.646 142.802 129.677 142.188 128.219 142.188ZM133.656 152C133.531 152.292 133.385 152.583 133.219 152.875C132.156 154.5 130.5 155.312 128.25 155.312C126.833 155.312 125.573 154.948 124.469 154.219C122.615 152.969 121.688 151.052 121.688 148.469C121.688 147.052 121.979 145.781 122.562 144.656C123.688 142.49 125.552 141.406 128.156 141.406C129.49 141.406 130.667 141.708 131.688 142.312C133.125 143.146 133.844 144.271 133.844 145.688C133.844 146.458 133.562 147.052 133 147.469C132.271 147.99 130.635 148.229 128.094 148.188L124.344 148.125C124.365 149 124.458 149.802 124.625 150.531C125.188 153.135 126.562 154.438 128.75 154.438C128.938 154.438 129.135 154.427 129.344 154.406C130.969 154.198 132.146 153.302 132.875 151.719L133.656 152ZM297.281 148.344C297.281 149.24 297.354 150.052 297.5 150.781C298.042 153.281 299.365 154.531 301.469 154.531C301.865 154.531 302.25 154.479 302.625 154.375C304.542 153.771 305.5 151.719 305.5 148.219C305.5 147.615 305.469 147.062 305.406 146.562C305.031 143.646 303.688 142.188 301.375 142.188C300.875 142.188 300.396 142.271 299.938 142.438C298.167 143.146 297.281 145.115 297.281 148.344ZM301.469 141.406C302.844 141.406 304.104 141.771 305.25 142.5C307.188 143.771 308.156 145.719 308.156 148.344C308.156 150.281 307.552 151.896 306.344 153.188C305.031 154.604 303.375 155.312 301.375 155.312C299.958 155.312 298.667 154.917 297.5 154.125C295.583 152.812 294.625 150.844 294.625 148.219C294.625 146.323 295.24 144.74 296.469 143.469C297.802 142.094 299.469 141.406 301.469 141.406ZM317.25 154.219C317.375 154.219 317.479 154.229 317.562 154.25C317.875 154.292 318.031 154.542 318.031 155H310.375V154.219C311.083 154.219 311.594 154.167 311.906 154.062C312.448 153.875 312.719 153.302 312.719 152.344V142.5H310.531V141.719H312.719V141.219C312.719 139.51 313.042 138.094 313.688 136.969C314.646 135.344 316.104 134.531 318.062 134.531C318.812 134.531 319.49 134.646 320.094 134.875C321.135 135.312 321.656 135.917 321.656 136.688C321.656 136.771 321.646 136.865 321.625 136.969C321.5 137.552 321.094 137.844 320.406 137.844C320.198 137.844 320.01 137.781 319.844 137.656C319.677 137.531 319.406 137.135 319.031 136.469C318.594 135.698 318.052 135.312 317.406 135.312C317.135 135.312 316.885 135.365 316.656 135.469C315.594 135.948 315.062 137.969 315.062 141.531V141.719H318.656V142.5H315.062V154.219H317.25ZM335.312 137.062H332.812V149.625C332.812 151.146 332.49 152.417 331.844 153.438C330.927 154.854 329.573 155.562 327.781 155.562C327.073 155.562 326.427 155.458 325.844 155.25C324.76 154.854 324.219 154.24 324.219 153.406C324.219 153.26 324.25 153.104 324.312 152.938C324.521 152.333 324.948 152.031 325.594 152.031C326.094 152.031 326.469 152.198 326.719 152.531C326.802 152.656 326.958 153.083 327.188 153.812C327.375 154.458 327.75 154.781 328.312 154.781C328.625 154.781 328.906 154.698 329.156 154.531C329.802 154.031 330.125 152.5 330.125 149.938V137.062H327.312V136.25H335.312V137.062ZM340.312 148.344C340.312 149.24 340.385 150.052 340.531 150.781C341.073 153.281 342.396 154.531 344.5 154.531C344.896 154.531 345.281 154.479 345.656 154.375C347.573 153.771 348.531 151.719 348.531 148.219C348.531 147.615 348.5 147.062 348.438 146.562C348.062 143.646 346.719 142.188 344.406 142.188C343.906 142.188 343.427 142.271 342.969 142.438C341.198 143.146 340.312 145.115 340.312 148.344ZM344.5 141.406C345.875 141.406 347.135 141.771 348.281 142.5C350.219 143.771 351.188 145.719 351.188 148.344C351.188 150.281 350.583 151.896 349.375 153.188C348.062 154.604 346.406 155.312 344.406 155.312C342.99 155.312 341.698 154.917 340.531 154.125C338.615 152.812 337.656 150.844 337.656 148.219C337.656 146.323 338.271 144.74 339.5 143.469C340.833 142.094 342.5 141.406 344.5 141.406ZM368.531 154.219C368.656 154.219 368.76 154.229 368.844 154.25C369.156 154.292 369.312 154.542 369.312 155H364.906L364.688 151.812C364.458 152.396 364.156 152.927 363.781 153.406C362.781 154.677 361.5 155.312 359.938 155.312C356.979 155.292 355.49 153.5 355.469 149.938V142.5H353.062V141.719H357.812V150.406C357.812 150.74 357.833 151.052 357.875 151.344C358.146 153.094 359.135 153.969 360.844 153.969C361.469 153.969 362.073 153.771 362.656 153.375C363.969 152.5 364.625 151.125 364.625 149.25V142.5H362.062V141.719H366.969V154.219H368.531ZM378.094 154.219C378.219 154.219 378.323 154.229 378.406 154.25C378.719 154.292 378.875 154.542 378.875 155H371.156V154.219C371.865 154.219 372.375 154.167 372.688 154.062C373.229 153.875 373.5 153.302 373.5 152.344V142.5H371.156V141.719H375.688L375.812 144.812C376.083 144.188 376.448 143.625 376.906 143.125C377.885 142.062 379 141.531 380.25 141.531C380.438 141.531 380.635 141.552 380.844 141.594C381.802 141.802 382.281 142.375 382.281 143.312C382.281 143.438 382.26 143.562 382.219 143.688C382.052 144.292 381.656 144.594 381.031 144.594C380.906 144.594 380.781 144.573 380.656 144.531C380.365 144.448 380.052 144.115 379.719 143.531C379.427 143.01 379.104 142.75 378.75 142.75C378.438 142.771 378.052 143 377.594 143.438C376.427 144.583 375.844 146.104 375.844 148V154.219H378.094ZM389.469 154.219C389.594 154.219 389.698 154.229 389.781 154.25C390.094 154.292 390.25 154.542 390.25 155H383.375V154.219C384.083 154.219 384.594 154.167 384.906 154.062C385.448 153.875 385.719 153.302 385.719 152.344V142.5H383.375V141.719H387.906L388.031 144.844C388.26 144.26 388.562 143.729 388.938 143.25C389.938 142.021 391.208 141.406 392.75 141.406C393.521 141.406 394.24 141.604 394.906 142C396.344 142.896 397.062 144.385 397.062 146.469V154.219H398.625C398.75 154.219 398.854 154.229 398.938 154.25C399.25 154.292 399.406 154.542 399.406 155H392.375V154.219C393.083 154.219 393.594 154.167 393.906 154.062C394.448 153.875 394.719 153.302 394.719 152.344V146.156C394.719 145.552 394.625 145.01 394.438 144.531C393.979 143.344 393.115 142.75 391.844 142.75C391.26 142.75 390.688 142.927 390.125 143.281C388.812 144.135 388.125 145.531 388.062 147.469V154.219H389.469ZM407.969 142.188C407.427 142.188 406.917 142.312 406.438 142.562C404.979 143.292 404.198 144.854 404.094 147.25L407.406 147.344C408.365 147.365 409.104 147.323 409.625 147.219C410.625 146.99 411.125 146.354 411.125 145.312C411.125 144.854 411.042 144.427 410.875 144.031C410.396 142.802 409.427 142.188 407.969 142.188ZM413.406 152C413.281 152.292 413.135 152.583 412.969 152.875C411.906 154.5 410.25 155.312 408 155.312C406.583 155.312 405.323 154.948 404.219 154.219C402.365 152.969 401.438 151.052 401.438 148.469C401.438 147.052 401.729 145.781 402.312 144.656C403.438 142.49 405.302 141.406 407.906 141.406C409.24 141.406 410.417 141.708 411.438 142.312C412.875 143.146 413.594 144.271 413.594 145.688C413.594 146.458 413.312 147.052 412.75 147.469C412.021 147.99 410.385 148.229 407.844 148.188L404.094 148.125C404.115 149 404.208 149.802 404.375 150.531C404.938 153.135 406.312 154.438 408.5 154.438C408.688 154.438 408.885 154.427 409.094 154.406C410.719 154.198 411.896 153.302 412.625 151.719L413.406 152ZM417.906 159.969C418.198 159.969 418.49 159.906 418.781 159.781C419.802 159.344 420.896 157.75 422.062 155L416.438 142.531H414.906V141.719H421V142.531H418.906L423.188 152.531L427.188 142.531H424.906V141.719H429.656C429.656 141.906 429.635 142.062 429.594 142.188C429.531 142.417 429.292 142.531 428.875 142.531C428.688 142.531 428.521 142.552 428.375 142.594C428.125 142.677 427.896 143.01 427.688 143.594L423.062 155C422.604 156.125 422.125 157.094 421.625 157.906C420.417 159.927 418.99 160.938 417.344 160.938C416.885 160.938 416.448 160.854 416.031 160.688C415.115 160.333 414.656 159.76 414.656 158.969C414.656 158.906 414.667 158.833 414.688 158.75C414.792 158.167 415.177 157.875 415.844 157.875C416.094 157.875 416.312 157.938 416.5 158.062C416.708 158.208 416.927 158.594 417.156 159.219C417.323 159.719 417.573 159.969 417.906 159.969ZM435.75 154.469C437.188 154.469 438.156 154.031 438.656 153.156C438.844 152.844 438.938 152.5 438.938 152.125C438.938 151.25 438.302 150.5 437.031 149.875C436.76 149.729 436.312 149.521 435.688 149.25C433.979 148.542 432.844 147.875 432.281 147.25C431.677 146.562 431.375 145.76 431.375 144.844C431.375 143.406 432.167 142.396 433.75 141.812C434.479 141.542 435.271 141.406 436.125 141.406C437.5 141.406 438.688 141.698 439.688 142.281C439.688 141.677 439.833 141.333 440.125 141.25C440.25 141.229 440.385 141.219 440.531 141.219V145.125H439.719C439.677 143.208 438.615 142.24 436.531 142.219C434.969 142.219 434 142.677 433.625 143.594C433.521 143.844 433.469 144.104 433.469 144.375C433.469 145.271 434.115 146.031 435.406 146.656C435.698 146.802 436.156 147 436.781 147.25C438.469 147.938 439.594 148.594 440.156 149.219C440.76 149.885 441.062 150.677 441.062 151.594C441.062 153.281 440.167 154.406 438.375 154.969C437.688 155.198 436.938 155.312 436.125 155.312C434.625 155.292 433.323 154.917 432.219 154.188C432.219 154.729 432.083 155.042 431.812 155.125C431.688 155.146 431.542 155.156 431.375 155.156V150.406H432.25C432.292 153.094 433.458 154.448 435.75 154.469Z" fill="#FFF2D3"/>
<path d="M32.425 126.336C32.425 125.653 32.7663 125.184 33.449 124.928C34.1317 124.587 34.8997 124.373 35.753 124.288C36.6917 124.117 37.673 123.605 38.697 122.752C39.721 121.813 40.5317 120.448 41.129 118.656C41.5557 117.035 41.9397 115.2 42.281 113.152L50.985 49.152C51.1557 47.7867 51.241 47.0187 51.241 46.848C51.241 45.568 50.6437 44.416 49.449 43.392C48.2543 42.2827 46.9317 41.6853 45.481 41.6C41.5557 41.344 39.593 40.4053 39.593 38.784C39.593 37.248 40.9157 36.48 43.561 36.48C45.0117 36.48 46.9743 36.736 49.449 37.248C52.009 37.6747 54.3557 37.888 56.489 37.888C58.6223 37.888 61.5663 37.6747 65.321 37.248C69.161 36.8213 72.873 36.608 76.457 36.608C92.6703 36.608 104.574 40.0213 112.169 46.848C119.849 53.5893 123.689 62.208 123.689 72.704C123.689 83.456 120.361 93.952 113.705 104.192C111.828 107.179 109.097 110.379 105.513 113.792C102.014 117.12 99.1557 119.424 96.937 120.704C88.9157 125.568 79.273 128 68.009 128C65.7903 128 62.9317 127.957 59.433 127.872C55.9343 127.701 52.1797 127.616 48.169 127.616C45.1823 127.616 42.3663 127.787 39.721 128.128C37.161 128.469 35.6677 128.64 35.241 128.64C34.473 128.64 33.7903 128.427 33.193 128C32.681 127.488 32.425 126.933 32.425 126.336ZM51.881 118.912C51.881 120.448 52.3077 121.643 53.161 122.496C54.0143 123.264 55.6357 123.648 58.025 123.648H69.289C73.0437 123.648 77.4383 122.752 82.473 120.96C87.593 119.168 91.9023 116.693 95.401 113.536C98.8143 110.379 101.716 106.752 104.105 102.656C106.58 98.4747 108.286 94.3787 109.225 90.368C110.249 86.3573 110.932 82.9867 111.273 80.256C111.7 77.5253 111.913 75.0507 111.913 72.832C111.913 70.1013 111.614 67.456 111.017 64.896C110.42 62.2507 109.268 59.52 107.561 56.704C105.854 53.8027 103.678 51.328 101.033 49.28C98.3877 47.1467 94.8037 45.3973 90.281 44.032C85.8437 42.6667 80.7663 41.984 75.049 41.984C69.7583 41.984 66.345 42.3253 64.809 43.008C63.273 43.6907 62.0357 45.696 61.097 49.024C60.7557 50.4747 59.817 57.0453 58.281 68.736C56.745 80.3413 55.2943 91.5627 53.929 102.4C52.5637 113.237 51.881 118.741 51.881 118.912ZM135.158 52.096C135.158 51.4133 135.969 50.1333 137.59 48.256C139.211 46.2933 140.534 45.312 141.558 45.312C142.753 45.312 143.862 46.1227 144.886 47.744C145.995 49.3653 146.55 50.816 146.55 52.096C146.55 53.2907 145.782 54.7413 144.246 56.448C142.71 58.0693 141.601 58.88 140.918 58.88C139.894 58.88 138.657 57.9413 137.206 56.064C135.841 54.1867 135.158 52.864 135.158 52.096ZM121.59 77.312C121.59 76.1173 122.571 75.52 124.534 75.52H125.814C127.35 75.52 129.483 75.3493 132.214 75.008C135.03 74.5813 137.761 74.368 140.406 74.368C141.601 74.368 142.198 74.8373 142.198 75.776C142.198 76.8853 141.686 79.104 140.662 82.432C139.723 85.76 139.083 88.4907 138.742 90.624C136.182 106.752 134.902 115.243 134.902 116.096C134.902 116.949 135.158 117.76 135.67 118.528C136.182 119.211 136.779 119.552 137.462 119.552C139.169 119.552 140.79 118.443 142.326 116.224C143.947 114.005 144.971 112.896 145.398 112.896C146.251 112.896 146.678 113.365 146.678 114.304C146.678 115.072 146.251 116.309 145.398 118.016C144.545 119.723 143.734 120.96 142.966 121.728C138.273 126.763 134.347 129.28 131.19 129.28C128.033 129.28 126.454 125.739 126.454 118.656C126.454 115.243 127.393 108.8 129.27 99.328C131.233 89.7707 132.214 83.8827 132.214 81.664C132.214 80.64 132.001 79.9573 131.574 79.616C131.147 79.1893 130.337 78.976 129.142 78.976C128.118 78.976 126.923 78.976 125.558 78.976C124.278 78.8907 123.553 78.848 123.382 78.848C122.187 78.848 121.59 78.336 121.59 77.312ZM146.166 109.184C146.166 103.808 147.446 98.4747 150.006 93.184C152.566 87.8933 156.107 83.1573 160.63 78.976C165.409 74.4533 171.339 72.192 178.422 72.192C181.494 72.192 184.097 73.088 186.23 74.88C188.449 76.672 189.558 78.9333 189.558 81.664C189.558 83.7973 189.046 85.8453 188.022 87.808C186.998 89.6853 185.718 91.264 184.182 92.544C182.646 93.824 181.281 94.848 180.086 95.616C178.977 96.2987 177.995 96.8107 177.142 97.152C172.193 99.3707 165.494 100.523 157.046 100.608C155.595 100.608 154.87 102.357 154.87 105.856C154.87 110.805 156.406 114.731 159.478 117.632C162.55 120.448 167.158 121.856 173.302 121.856C175.435 121.856 177.526 121.387 179.574 120.448C181.707 119.509 183.414 118.613 184.694 117.76C186.059 116.821 186.87 116.352 187.126 116.352C188.15 116.352 188.662 116.779 188.662 117.632C188.662 119.424 186.187 121.856 181.238 124.928C176.374 128 171.425 129.536 166.39 129.536C158.795 129.536 153.505 127.744 150.518 124.16C147.617 120.576 146.166 115.584 146.166 109.184ZM156.662 95.872C156.662 97.5787 157.046 98.432 157.814 98.432C163.873 98.432 169.206 96.7253 173.814 93.312C178.422 89.8987 180.726 86.144 180.726 82.048C180.726 79.9147 179.958 78.3787 178.422 77.44C176.971 76.5013 175.478 76.032 173.942 76.032C170.785 76.032 167.286 78.0373 163.446 82.048C161.739 83.84 160.161 86.3147 158.71 89.472C157.345 92.6293 156.662 94.7627 156.662 95.872ZM180.038 137.344C180.038 135.211 180.465 133.333 181.318 131.712C182.171 130.091 183.195 128.853 184.39 128C185.585 127.147 186.779 126.507 187.974 126.08C189.169 125.568 190.193 125.184 191.046 124.928C191.899 124.672 192.326 124.501 192.326 124.416C192.326 124.245 192.198 123.989 191.942 123.648C191.686 123.221 191.43 122.624 191.174 121.856C190.918 121.003 190.79 119.979 190.79 118.784C190.79 116.992 191.217 115.456 192.07 114.176C192.923 112.896 193.734 111.957 194.502 111.36C195.355 110.677 195.782 110.208 195.782 109.952C195.782 109.867 195.313 109.44 194.374 108.672C193.521 107.819 192.625 106.155 191.686 103.68C190.747 101.205 190.278 97.92 190.278 93.824C190.278 89.3013 192.027 84.7787 195.526 80.256C199.11 75.648 203.718 73.344 209.35 73.344C211.313 73.344 213.873 73.8987 217.03 75.008C220.187 76.1173 222.321 76.672 223.43 76.672C224.71 76.672 226.417 76.2027 228.55 75.264C230.683 74.3253 232.049 73.856 232.646 73.856C233.499 73.856 234.31 74.112 235.078 74.624C235.931 75.136 236.358 75.9893 236.358 77.184C236.358 78.0373 235.931 78.9333 235.078 79.872C234.225 80.7253 233.073 81.152 231.622 81.152C230.342 81.152 228.934 80.9813 227.398 80.64C225.862 80.2987 225.009 80.128 224.838 80.128C223.814 80.128 223.302 80.512 223.302 81.28C223.302 81.4507 223.473 82.0053 223.814 82.944C224.241 83.7973 224.625 84.992 224.966 86.528C225.393 88.064 225.606 89.6427 225.606 91.264C225.606 96.0427 223.857 100.907 220.358 105.856C216.945 110.805 212.593 113.28 207.302 113.28C204.998 113.28 202.865 113.024 200.902 112.512C198.939 111.915 197.787 111.616 197.446 111.616C197.361 111.616 197.19 111.744 196.934 112C196.763 112.171 196.55 112.64 196.294 113.408C196.038 114.091 195.91 114.944 195.91 115.968C195.91 118.357 197.617 120.363 201.03 121.984C204.443 123.605 208.155 124.885 212.166 125.824C216.262 126.677 220.017 128.213 223.43 130.432C226.843 132.736 228.55 135.637 228.55 139.136C228.55 144.256 226.587 147.84 222.662 149.888C218.822 151.936 213.361 152.96 206.278 152.96C198.939 152.96 192.71 151.637 187.59 148.992C182.555 146.432 180.038 142.549 180.038 137.344ZM187.078 135.808C187.078 140.331 188.998 143.787 192.838 146.176C196.763 148.565 201.158 149.76 206.022 149.76C215.579 149.76 220.358 146.987 220.358 141.44C220.358 139.989 218.822 138.368 215.75 136.576C212.763 134.869 206.79 132.181 197.83 128.512C196.891 128.171 196.038 127.829 195.27 127.488C194.587 127.061 194.118 126.72 193.862 126.464L193.606 126.208C192.497 126.208 191.131 127.232 189.51 129.28C187.889 131.328 187.078 133.504 187.078 135.808ZM197.958 96C197.958 100.693 198.769 104.277 200.39 106.752C202.097 109.141 204.187 110.336 206.662 110.336C209.649 110.336 212.294 108.672 214.598 105.344C216.987 101.931 218.182 97.4507 218.182 91.904C218.182 87.04 217.286 83.2853 215.494 80.64C213.787 77.9947 211.654 76.672 209.094 76.672C206.193 76.672 203.59 78.4213 201.286 81.92C199.067 85.3333 197.958 90.0267 197.958 96ZM229.496 106.368C229.496 97.664 232.227 89.8133 237.688 82.816C243.235 75.8187 250.573 72.32 259.704 72.32C265.763 72.32 270.371 74.496 273.528 78.848C276.771 83.1147 278.392 88.4907 278.392 94.976C278.392 100.523 277.283 105.856 275.064 110.976C272.931 116.096 269.56 120.448 264.952 124.032C260.344 127.531 255.053 129.28 249.08 129.28C243.448 129.28 238.755 127.317 235 123.392C231.331 119.467 229.496 113.792 229.496 106.368ZM239.352 106.496C239.352 112.64 240.376 117.333 242.424 120.576C244.557 123.819 247.245 125.44 250.488 125.44C253.731 125.44 256.589 124.288 259.064 121.984C261.624 119.68 263.544 116.821 264.824 113.408C266.189 109.909 267.213 106.453 267.896 103.04C268.579 99.5413 268.92 96.3413 268.92 93.44C268.92 87.7227 267.853 83.4133 265.72 80.512C263.672 77.6107 261.069 76.16 257.912 76.16C254.669 76.16 251.555 77.6107 248.568 80.512C245.581 83.328 243.363 87.2107 241.912 92.16C240.205 98.1333 239.352 102.912 239.352 106.496ZM294.415 126.848C294.415 125.483 295.012 124.8 296.207 124.8C297.146 124.8 297.999 124.672 298.767 124.416C299.535 124.16 300.175 123.691 300.687 123.008C301.284 122.325 301.754 121.813 302.095 121.472C302.436 121.045 302.735 120.277 302.991 119.168C303.247 117.973 303.418 117.205 303.503 116.864C303.588 116.523 303.716 115.712 303.887 114.432L304.143 112.384C305.167 105.728 306.575 93.824 308.367 76.672C310.159 59.4347 311.055 49.8347 311.055 47.872C311.055 45.7387 309.988 43.904 307.855 42.368C307.172 41.856 306.319 41.5147 305.295 41.344C304.271 41.088 303.375 40.96 302.607 40.96C301.839 40.8747 301.156 40.704 300.559 40.448C300.047 40.1067 299.791 39.5947 299.791 38.912C299.791 38.4853 299.962 38.144 300.303 37.888C300.73 37.5467 301.114 37.376 301.455 37.376C301.626 37.376 302.735 37.4613 304.783 37.632C306.831 37.8027 308.623 37.888 310.159 37.888C311.866 37.888 314.426 37.888 317.839 37.888C321.252 37.8027 323.258 37.76 323.855 37.76C325.732 37.76 328.25 37.76 331.407 37.76C334.564 37.6747 336.826 37.632 338.191 37.632C345.786 37.632 352.015 39.296 356.879 42.624C361.743 45.952 364.175 51.072 364.175 57.984C364.175 60.8 363.535 63.488 362.255 66.048C361.06 68.608 359.567 70.7413 357.775 72.448C355.983 74.0693 354.191 75.4773 352.399 76.672C350.692 77.8667 349.199 78.8053 347.919 79.488C346.724 80.1707 346.127 80.5547 346.127 80.64C346.127 80.8107 346.767 81.1093 348.047 81.536C349.327 81.8773 350.863 82.432 352.655 83.2C354.447 83.968 356.239 85.0347 358.031 86.4C359.823 87.68 361.359 89.6 362.639 92.16C363.919 94.72 364.559 97.7493 364.559 101.248C364.559 104.064 363.876 107.051 362.511 110.208C361.231 113.365 358.97 116.523 355.727 119.68C352.57 122.752 348.772 125.013 344.335 126.464C340.239 127.744 334.778 128.384 327.951 128.384C324.964 128.384 321.466 128.299 317.455 128.128C313.53 128.043 311.268 128 310.671 128C309.903 128 307.898 128.128 304.655 128.384C301.498 128.64 298.98 128.768 297.103 128.768C295.311 128.768 294.415 128.128 294.415 126.848ZM312.847 118.4C312.847 120.448 313.914 121.984 316.047 123.008C318.18 123.947 322.319 124.416 328.463 124.416C336.826 124.416 343.098 122.069 347.279 117.376C351.546 112.683 353.679 107.904 353.679 103.04C353.679 97.664 351.93 93.056 348.431 89.216C345.018 85.2907 339.727 83.0293 332.559 82.432C326.586 82.0053 323.087 81.792 322.063 81.792H318.351C317.583 81.792 316.9 84.3947 316.303 89.6C316.132 90.7093 315.919 92.5867 315.663 95.232C315.322 98.1333 315.023 100.48 314.767 102.272L313.743 110.848C313.658 111.787 313.53 112.896 313.359 114.176C313.188 115.371 313.06 116.309 312.975 116.992C312.89 117.675 312.847 118.144 312.847 118.4ZM318.479 76.288C318.479 77.3973 319.375 78.08 321.167 78.336C322.959 78.5067 327.78 78.592 335.631 78.592C338.959 78.592 341.903 77.9093 344.463 76.544C347.023 75.1787 348.943 73.472 350.223 71.424C351.503 69.376 352.442 67.3707 353.039 65.408C353.722 63.4453 354.063 61.6107 354.063 59.904C354.063 54.9547 352.186 50.9013 348.431 47.744C346.212 45.8667 343.738 44.5013 341.007 43.648C338.362 42.7947 334.351 42.368 328.975 42.368C326.5 42.368 324.836 42.7093 323.983 43.392C323.13 44.0747 322.532 45.5253 322.191 47.744L320.655 58.24C319.204 67.712 318.479 73.728 318.479 76.288ZM363.19 90.112C363.19 87.3813 363.574 84.9067 364.342 82.688C365.11 80.4693 366.006 78.7627 367.03 77.568C368.139 76.3733 369.291 75.3493 370.486 74.496C371.681 73.6427 372.662 73.088 373.43 72.832C374.283 72.576 374.881 72.448 375.222 72.448C377.27 72.448 378.849 73.9413 379.958 76.928C382.091 82.56 383.286 85.376 383.542 85.376C383.627 85.376 384.438 84.3093 385.974 82.176C387.51 79.9573 389.558 77.7387 392.118 75.52C394.763 73.3013 397.494 72.192 400.31 72.192C401.846 72.192 402.998 72.6187 403.766 73.472C404.619 74.24 405.046 75.136 405.046 76.16C405.046 76.8427 404.79 77.7813 404.278 78.976C403.851 80.1707 403.638 80.8107 403.638 80.896L403.51 81.92C403.339 82.688 403.169 83.2853 402.998 83.712C402.827 84.1387 402.529 84.608 402.102 85.12C401.761 85.5467 401.334 85.76 400.822 85.76C400.054 85.76 399.414 85.3333 398.902 84.48C398.39 83.5413 397.75 82.6453 396.982 81.792C396.214 80.8533 395.19 80.384 393.91 80.384C391.435 80.384 389.345 82.944 387.638 88.064C385.931 93.184 384.822 98.0053 384.31 102.528L383.67 106.752C382.134 118.784 381.025 125.483 380.342 126.848C379.489 127.957 378.209 128.512 376.502 128.512H375.862C373.302 128.512 372.022 127.403 372.022 125.184C372.022 123.819 372.918 118.784 374.71 110.08C376.587 101.376 377.526 95.232 377.526 91.648C377.526 85.8453 376.075 82.944 373.174 82.944C371.638 82.944 370.358 83.584 369.334 84.864C368.31 86.0587 367.542 87.4667 367.03 89.088C366.518 90.624 366.219 91.4347 366.134 91.52C365.622 92.032 365.153 92.288 364.726 92.288C363.702 92.288 363.19 91.5627 363.19 90.112ZM395.156 113.408C395.156 107.179 397.545 100.224 402.324 92.544C407.444 84.5227 413.204 78.976 419.604 75.904C422.761 74.368 425.876 73.6 428.948 73.6C430.228 73.6 431.977 73.856 434.196 74.368C436.5 74.7947 438.377 75.008 439.828 75.008C440.681 75.008 441.791 73.984 443.156 71.936C444.521 69.8027 445.631 68.736 446.484 68.736C447.423 68.736 447.892 69.376 447.892 70.656C447.892 71.424 447.508 72.832 446.74 74.88C446.057 76.928 445.588 78.464 445.332 79.488C445.247 79.8293 444.265 85.2907 442.388 95.872C440.852 104.32 440.084 109.781 440.084 112.256C440.084 114.048 440.511 115.755 441.364 117.376C442.217 118.997 443.241 119.808 444.436 119.808C445.972 119.808 447.721 118.443 449.684 115.712C451.732 112.896 453.097 111.488 453.78 111.488C454.548 111.488 454.932 111.957 454.932 112.896C454.932 114.432 454.164 116.267 452.628 118.4C450.836 121.045 448.703 123.477 446.228 125.696C443.839 127.829 441.833 128.896 440.212 128.896C437.823 128.896 436.031 127.701 434.836 125.312C433.641 122.923 432.916 120.533 432.66 118.144C432.489 115.755 432.361 114.56 432.276 114.56C432.191 114.56 431.679 115.115 430.74 116.224C429.887 117.248 428.692 118.528 427.156 120.064C425.705 121.515 424.041 123.008 422.164 124.544C420.372 125.995 418.281 127.232 415.892 128.256C413.503 129.365 411.156 129.92 408.852 129.92C403.391 129.92 399.721 128.469 397.844 125.568C396.052 122.581 395.156 118.528 395.156 113.408ZM404.116 112.64C404.116 115.712 405.055 118.187 406.932 120.064C408.895 121.941 411.284 122.88 414.1 122.88C418.025 122.88 421.439 121.557 424.34 118.912C427.327 116.181 429.375 113.664 430.484 111.36C431.423 109.568 432.404 106.155 433.428 101.12C434.537 96.0853 435.391 91.6053 435.988 87.68C436.671 83.7547 437.012 81.6213 437.012 81.28C437.012 79.744 436.073 78.6347 434.196 77.952C432.319 77.184 430.441 76.8 428.564 76.8C425.833 76.8 422.975 77.7387 419.988 79.616C417.001 81.4933 414.569 84.0107 412.692 87.168C408.255 94.5067 405.609 100.693 404.756 105.728C404.329 108.288 404.116 110.592 404.116 112.64ZM450.172 86.912C450.172 84.352 451.665 81.28 454.652 77.696C457.639 74.112 460.327 72.32 462.716 72.32C464.935 72.32 466.428 73.472 467.196 75.776C467.964 77.9947 468.348 80.2133 468.348 82.432C468.348 84.6507 468.433 85.76 468.604 85.76C468.775 85.76 469.031 85.504 469.372 84.992C469.799 84.48 470.481 83.6693 471.42 82.56C472.444 81.4507 473.639 80.384 475.004 79.36C481.233 74.496 486.439 72.064 490.62 72.064C497.788 72.064 501.372 77.3973 501.372 88.064C501.372 91.4773 500.988 96.5547 500.22 103.296C499.537 110.037 499.196 113.92 499.196 114.944C499.196 118.016 500.007 119.552 501.628 119.552C502.311 119.552 503.079 119.339 503.932 118.912C504.785 118.4 505.468 117.931 505.98 117.504L506.748 116.736C507.004 116.48 507.303 116.053 507.644 115.456C508.071 114.859 508.369 114.475 508.54 114.304C508.796 114.048 509.095 113.835 509.436 113.664C509.863 113.408 510.289 113.28 510.716 113.28C511.484 113.28 511.868 113.792 511.868 114.816C511.868 117.291 509.735 120.235 505.468 123.648C501.287 127.061 497.788 128.768 494.972 128.768C493.692 128.768 492.583 128 491.644 126.464C490.705 124.843 490.236 122.923 490.236 120.704C490.236 117.035 490.663 111.147 491.516 103.04C492.455 94.9333 492.924 90.2827 492.924 89.088C492.924 87.8933 492.796 86.656 492.54 85.376C492.284 84.0107 491.388 82.56 489.852 81.024C488.401 79.4027 486.439 78.592 483.964 78.592C481.063 78.592 478.289 80.4693 475.644 84.224C474.449 85.9307 473.596 87.168 473.084 87.936C472.572 88.704 472.103 89.7707 471.676 91.136C471.249 92.416 470.951 93.44 470.78 94.208C470.695 94.976 470.396 96.768 469.884 99.584C469.457 102.315 469.031 104.917 468.604 107.392C467.836 111.403 467.239 114.688 466.812 117.248C466.471 119.723 466.257 121.344 466.172 122.112C466.172 122.795 466.129 123.392 466.044 123.904C466.044 124.331 466.044 124.672 466.044 124.928C465.873 126.293 465.447 127.189 464.764 127.616C464.167 128.043 463.015 128.256 461.308 128.256C459.431 128.256 458.193 128.043 457.596 127.616C457.084 127.189 456.828 126.08 456.828 124.288C456.828 122.837 457.767 117.547 459.644 108.416C461.521 99.2853 462.46 92.8853 462.46 89.216C462.46 87.168 462.119 85.504 461.436 84.224C460.839 82.8587 460.199 82.176 459.516 82.176C458.065 82.176 456.529 83.3707 454.908 85.76C453.372 88.1493 452.177 89.344 451.324 89.344C450.556 89.344 450.172 88.5333 450.172 86.912ZM507.066 112C507.066 102.187 510.437 93.2693 517.178 85.248C523.919 77.1413 531.173 73.088 538.938 73.088C540.047 73.088 541.583 73.3867 543.546 73.984C545.594 74.496 547.215 74.752 548.41 74.752C548.581 74.752 549.391 69.1627 550.842 57.984C552.293 46.72 553.018 40.7893 553.018 40.192C553.018 39.2533 552.634 38.4853 551.866 37.888C551.183 37.2907 550.33 36.992 549.306 36.992C548.879 36.992 548.282 37.0347 547.514 37.12C546.831 37.12 546.191 37.12 545.594 37.12H544.826C543.461 37.12 542.778 36.6507 542.778 35.712C542.778 35.0293 543.119 34.56 543.802 34.304C544.57 34.048 545.722 33.8347 547.258 33.664C548.879 33.4933 550.074 33.3227 550.842 33.152C552.037 32.8107 553.146 32.512 554.17 32.256C555.279 32 556.005 31.8293 556.346 31.744C556.773 31.5733 557.242 31.4453 557.754 31.36C558.266 31.1893 558.693 31.104 559.034 31.104C559.461 31.104 560.015 31.104 560.698 31.104C561.295 31.104 561.765 31.3173 562.106 31.744C562.533 32.1707 562.746 32.6827 562.746 33.28C562.746 33.8773 562.661 34.6453 562.49 35.584C562.405 36.5227 562.149 38.3147 561.722 40.96C561.381 43.52 560.911 46.6347 560.314 50.304C559.802 53.888 558.991 59.5627 557.882 67.328C556.773 75.008 555.578 83.584 554.298 93.056C552.506 105.429 551.61 112.64 551.61 114.688C551.61 118.357 552.719 120.192 554.938 120.192C556.559 120.192 558.095 119.552 559.546 118.272C561.082 116.907 562.319 115.584 563.258 114.304C564.282 112.939 565.05 112.256 565.562 112.256C566.501 112.256 566.97 112.64 566.97 113.408C566.97 115.371 565.135 118.485 561.466 122.752C557.882 126.933 554.255 129.024 550.586 129.024C548.538 129.024 546.959 128.299 545.85 126.848C544.741 125.312 544.101 123.648 543.93 121.856C543.759 120.064 543.589 118.443 543.418 116.992C543.333 115.456 543.119 114.688 542.778 114.688C542.607 114.688 541.967 115.456 540.858 116.992C539.749 118.443 538.426 120.064 536.89 121.856C535.439 123.648 533.391 125.312 530.746 126.848C528.101 128.299 525.327 129.024 522.426 129.024C517.221 129.024 513.338 127.488 510.778 124.416C508.303 121.259 507.066 117.12 507.066 112ZM516.026 108.416C516.026 112.427 516.922 115.627 518.714 118.016C520.506 120.405 523.237 121.6 526.906 121.6C532.026 121.6 536.335 119.381 539.834 114.944C542.053 112.213 543.759 106.923 544.954 99.072C546.234 91.2213 546.874 85.1627 546.874 80.896C546.874 79.2747 545.935 78.0373 544.058 77.184C542.266 76.2453 540.346 75.776 538.298 75.776C534.543 75.776 530.917 77.568 527.418 81.152C523.919 84.736 521.146 89.0453 519.098 94.08C517.05 99.1147 516.026 103.893 516.026 108.416ZM573.257 52.352C573.257 51.2427 574.025 49.8347 575.561 48.128C577.097 46.4213 578.505 45.568 579.785 45.568C580.724 45.568 581.748 46.2933 582.857 47.744C583.966 49.1947 584.521 50.6027 584.521 51.968C584.521 53.1627 583.838 54.6133 582.473 56.32C581.108 58.0267 579.998 58.88 579.145 58.88C577.78 58.88 576.457 57.984 575.177 56.192C573.897 54.4 573.257 53.12 573.257 52.352ZM549.961 144.768C549.961 143.403 550.516 142.72 551.625 142.72C552.478 142.72 553.758 143.616 555.465 145.408C557.172 147.2 558.622 148.096 559.817 148.096C561.182 148.096 562.292 146.389 563.145 142.976C563.998 139.563 565.108 132.267 566.473 121.088C567.07 116.395 567.796 110.763 568.649 104.192C569.588 97.536 570.313 92.288 570.825 88.448C571.337 84.5227 571.593 82.3893 571.593 82.048C571.593 80 570.228 78.976 567.497 78.976H564.169C562.633 78.976 561.865 78.464 561.865 77.44C561.865 76.0747 562.718 75.392 564.425 75.392C564.766 75.392 565.364 75.392 566.217 75.392C567.07 75.3067 567.796 75.264 568.393 75.264C569.502 75.264 571.038 75.0933 573.001 74.752C575.049 74.3253 576.67 74.112 577.865 74.112C579.828 74.112 580.809 74.7947 580.809 76.16C580.809 78.2933 580.382 81.5787 579.529 86.016C578.761 90.368 578.249 93.3547 577.993 94.976C577.31 100.181 576.585 105.984 575.817 112.384C575.049 118.699 574.494 123.093 574.153 125.568C573.897 127.957 573.47 130.731 572.873 133.888C572.361 137.045 571.806 139.264 571.209 140.544C570.612 141.824 569.844 143.189 568.905 144.64C567.966 146.091 566.729 147.541 565.193 148.992C565.108 149.077 564.809 149.376 564.297 149.888C563.785 150.4 563.401 150.741 563.145 150.912C562.974 151.083 562.633 151.339 562.121 151.68C561.694 152.107 561.268 152.363 560.841 152.448C560.5 152.619 560.03 152.789 559.433 152.96C558.921 153.216 558.324 153.387 557.641 153.472C556.958 153.557 556.233 153.6 555.465 153.6C553.673 153.6 552.393 153.344 551.625 152.832C550.857 152.405 550.43 151.467 550.345 150.016C550.26 148.736 550.174 147.584 550.089 146.56C550.004 145.621 549.961 145.024 549.961 144.768ZM582.566 109.184C582.566 103.808 583.846 98.4747 586.406 93.184C588.966 87.8933 592.507 83.1573 597.03 78.976C601.809 74.4533 607.739 72.192 614.822 72.192C617.894 72.192 620.497 73.088 622.63 74.88C624.849 76.672 625.958 78.9333 625.958 81.664C625.958 83.7973 625.446 85.8453 624.422 87.808C623.398 89.6853 622.118 91.264 620.582 92.544C619.046 93.824 617.681 94.848 616.486 95.616C615.377 96.2987 614.395 96.8107 613.542 97.152C608.593 99.3707 601.894 100.523 593.446 100.608C591.995 100.608 591.27 102.357 591.27 105.856C591.27 110.805 592.806 114.731 595.878 117.632C598.95 120.448 603.558 121.856 609.702 121.856C611.835 121.856 613.926 121.387 615.974 120.448C618.107 119.509 619.814 118.613 621.094 117.76C622.459 116.821 623.27 116.352 623.526 116.352C624.55 116.352 625.062 116.779 625.062 117.632C625.062 119.424 622.587 121.856 617.638 124.928C612.774 128 607.825 129.536 602.79 129.536C595.195 129.536 589.905 127.744 586.918 124.16C584.017 120.576 582.566 115.584 582.566 109.184ZM593.062 95.872C593.062 97.5787 593.446 98.432 594.214 98.432C600.273 98.432 605.606 96.7253 610.214 93.312C614.822 89.8987 617.126 86.144 617.126 82.048C617.126 79.9147 616.358 78.3787 614.822 77.44C613.371 76.5013 611.878 76.032 610.342 76.032C607.185 76.032 603.686 78.0373 599.846 82.048C598.139 83.84 596.561 86.3147 595.11 89.472C593.745 92.6293 593.062 94.7627 593.062 95.872ZM621.43 121.088C621.43 118.016 622.795 116.48 625.526 116.48C626.977 116.48 628.171 116.949 629.11 117.888C630.049 118.827 630.731 119.851 631.158 120.96C631.585 121.984 632.353 122.965 633.462 123.904C634.571 124.843 635.979 125.312 637.686 125.312C639.819 125.312 641.654 124.971 643.19 124.288C644.726 123.605 645.793 122.752 646.39 121.728C646.987 120.704 647.371 119.851 647.542 119.168C647.798 118.4 647.926 117.717 647.926 117.12C647.926 115.669 647.755 114.389 647.414 113.28C647.073 112.085 646.262 110.72 644.982 109.184C643.787 107.648 642.977 106.709 642.55 106.368C642.209 105.941 641.057 104.747 639.094 102.784C638.582 102.272 637.771 101.461 636.662 100.352C635.553 99.2427 634.742 98.432 634.23 97.92C633.718 97.408 633.035 96.64 632.182 95.616C631.414 94.592 630.859 93.696 630.518 92.928C630.177 92.16 629.835 91.2213 629.494 90.112C629.238 89.0027 629.11 87.808 629.11 86.528C629.11 82.2613 630.731 78.8053 633.974 76.16C637.302 73.4293 641.483 72.064 646.518 72.064C654.454 72.064 658.422 74.2827 658.422 78.72C658.422 79.9147 658.038 80.896 657.27 81.664C656.502 82.3467 655.777 82.7733 655.094 82.944C654.497 83.0293 653.985 83.072 653.558 83.072C652.022 83.072 650.358 81.8773 648.566 79.488C646.859 77.0987 645.153 75.904 643.446 75.904C638.923 75.904 636.662 78.1653 636.662 82.688C636.662 84.1387 637.174 85.632 638.198 87.168C639.222 88.704 640.886 90.5387 643.19 92.672C645.494 94.8053 646.689 95.9573 646.774 96.128C647.115 96.4693 647.883 97.3227 649.078 98.688C650.358 99.968 651.211 100.949 651.638 101.632C652.15 102.229 652.79 103.168 653.558 104.448C654.326 105.643 654.838 106.923 655.094 108.288C655.435 109.653 655.606 111.147 655.606 112.768C655.606 114.133 655.307 115.669 654.71 117.376C654.113 119.083 653.131 120.917 651.766 122.88C650.486 124.757 648.438 126.336 645.622 127.616C642.806 128.896 639.478 129.536 635.638 129.536C632.225 129.536 628.982 128.896 625.91 127.616C622.923 126.251 621.43 124.075 621.43 121.088Z" fill="#FFF2D3"/>
</svg>
